<mxfile host="app.diagrams.net" modified="2020-11-27T02:20:41.319Z" agent="5.0 (Windows NT 10.0; Win64; x64) AppleWebKit/537.36 (KHTML, like Gecko) Chrome/87.0.4280.66 Safari/537.36" etag="0y27-5AVHotPIMTILS28" version="13.10.4" type="github">
  <diagram id="7icV9ozDjVEED3Cib2N2" name="Page-1">
    <mxGraphModel dx="1422" dy="1941" grid="1" gridSize="10" guides="1" tooltips="1" connect="1" arrows="1" fold="1" page="1" pageScale="1" pageWidth="827" pageHeight="1169" math="0" shadow="0">
      <root>
        <mxCell id="0" />
        <mxCell id="1" parent="0" />
        <mxCell id="biC8zAyFuYJWOUnFyClr-1" value="Redis" style="ellipse;whiteSpace=wrap;html=1;sketch=1;fillColor=#d5e8d4;strokeColor=#82b366;" vertex="1" parent="1">
          <mxGeometry x="310" y="280" width="120" height="80" as="geometry" />
        </mxCell>
        <mxCell id="biC8zAyFuYJWOUnFyClr-2" value="APP" style="shape=parallelogram;perimeter=parallelogramPerimeter;whiteSpace=wrap;html=1;fixedSize=1;fillColor=#d5e8d4;strokeColor=#82b366;sketch=1;" vertex="1" parent="1">
          <mxGeometry x="294" y="120" width="120" height="60" as="geometry" />
        </mxCell>
        <mxCell id="biC8zAyFuYJWOUnFyClr-3" value="" style="endArrow=none;html=1;entryX=0.35;entryY=1.083;entryDx=0;entryDy=0;exitX=0.5;exitY=0;exitDx=0;exitDy=0;entryPerimeter=0;fillColor=#d5e8d4;strokeColor=#82b366;" edge="1" parent="1" source="biC8zAyFuYJWOUnFyClr-1" target="biC8zAyFuYJWOUnFyClr-2">
          <mxGeometry width="50" height="50" relative="1" as="geometry">
            <mxPoint x="390" y="420" as="sourcePoint" />
            <mxPoint x="440" y="370" as="targetPoint" />
          </mxGeometry>
        </mxCell>
        <mxCell id="biC8zAyFuYJWOUnFyClr-4" value="MySQL" style="shape=cylinder3;whiteSpace=wrap;html=1;boundedLbl=1;backgroundOutline=1;size=15;sketch=1;fillColor=#d5e8d4;strokeColor=#82b366;" vertex="1" parent="1">
          <mxGeometry x="210" y="400" width="60" height="80" as="geometry" />
        </mxCell>
        <mxCell id="biC8zAyFuYJWOUnFyClr-5" value="" style="shape=cylinder3;whiteSpace=wrap;html=1;boundedLbl=1;backgroundOutline=1;size=15;sketch=1;fillColor=#d5e8d4;strokeColor=#82b366;" vertex="1" parent="1">
          <mxGeometry x="370" y="400" width="60" height="80" as="geometry" />
        </mxCell>
        <mxCell id="biC8zAyFuYJWOUnFyClr-6" value="" style="shape=cylinder3;whiteSpace=wrap;html=1;boundedLbl=1;backgroundOutline=1;size=15;sketch=1;fillColor=#d5e8d4;strokeColor=#82b366;" vertex="1" parent="1">
          <mxGeometry x="520" y="400" width="60" height="80" as="geometry" />
        </mxCell>
        <mxCell id="biC8zAyFuYJWOUnFyClr-16" style="edgeStyle=orthogonalEdgeStyle;rounded=0;orthogonalLoop=1;jettySize=auto;html=1;exitX=0.5;exitY=0.5;exitDx=0;exitDy=0;exitPerimeter=0;fillColor=#d5e8d4;strokeColor=#82b366;" edge="1" parent="1" source="biC8zAyFuYJWOUnFyClr-7">
          <mxGeometry relative="1" as="geometry">
            <mxPoint x="340" y="40" as="targetPoint" />
          </mxGeometry>
        </mxCell>
        <mxCell id="biC8zAyFuYJWOUnFyClr-7" value="Actor" style="shape=umlActor;verticalLabelPosition=bottom;verticalAlign=top;html=1;outlineConnect=0;sketch=1;fillColor=#d5e8d4;strokeColor=#82b366;" vertex="1" parent="1">
          <mxGeometry x="339" y="-10" width="30" height="60" as="geometry" />
        </mxCell>
        <mxCell id="biC8zAyFuYJWOUnFyClr-8" value="Actor" style="shape=umlActor;verticalLabelPosition=bottom;verticalAlign=top;html=1;outlineConnect=0;sketch=1;fillColor=#d5e8d4;strokeColor=#82b366;" vertex="1" parent="1">
          <mxGeometry x="349" width="30" height="60" as="geometry" />
        </mxCell>
        <mxCell id="biC8zAyFuYJWOUnFyClr-15" style="edgeStyle=orthogonalEdgeStyle;rounded=0;orthogonalLoop=1;jettySize=auto;html=1;exitX=0;exitY=0.3333333333333333;exitDx=0;exitDy=0;exitPerimeter=0;fillColor=#d5e8d4;strokeColor=#82b366;" edge="1" parent="1" source="biC8zAyFuYJWOUnFyClr-9" target="biC8zAyFuYJWOUnFyClr-11">
          <mxGeometry relative="1" as="geometry" />
        </mxCell>
        <mxCell id="biC8zAyFuYJWOUnFyClr-9" value="Actor" style="shape=umlActor;verticalLabelPosition=bottom;verticalAlign=top;html=1;outlineConnect=0;sketch=1;fillColor=#d5e8d4;strokeColor=#82b366;" vertex="1" parent="1">
          <mxGeometry x="359" y="10" width="30" height="60" as="geometry" />
        </mxCell>
        <mxCell id="biC8zAyFuYJWOUnFyClr-10" value="Actor" style="shape=umlActor;verticalLabelPosition=bottom;verticalAlign=top;html=1;outlineConnect=0;sketch=1;fillColor=#d5e8d4;strokeColor=#82b366;" vertex="1" parent="1">
          <mxGeometry x="369" y="20" width="30" height="60" as="geometry" />
        </mxCell>
        <mxCell id="biC8zAyFuYJWOUnFyClr-14" style="edgeStyle=orthogonalEdgeStyle;rounded=0;orthogonalLoop=1;jettySize=auto;html=1;exitX=0.5;exitY=0;exitDx=0;exitDy=0;exitPerimeter=0;fillColor=#d5e8d4;strokeColor=#82b366;" edge="1" parent="1" source="biC8zAyFuYJWOUnFyClr-11">
          <mxGeometry relative="1" as="geometry">
            <mxPoint x="410" y="20" as="targetPoint" />
          </mxGeometry>
        </mxCell>
        <mxCell id="biC8zAyFuYJWOUnFyClr-11" value="Actor" style="shape=umlActor;verticalLabelPosition=bottom;verticalAlign=top;html=1;outlineConnect=0;sketch=1;fillColor=#d5e8d4;strokeColor=#82b366;" vertex="1" parent="1">
          <mxGeometry x="400" y="20" width="19" height="60" as="geometry" />
        </mxCell>
        <mxCell id="biC8zAyFuYJWOUnFyClr-12" value="Actor" style="shape=umlActor;verticalLabelPosition=bottom;verticalAlign=top;html=1;outlineConnect=0;sketch=1;fillColor=#d5e8d4;strokeColor=#82b366;" vertex="1" parent="1">
          <mxGeometry x="430" y="10" width="30" height="60" as="geometry" />
        </mxCell>
        <mxCell id="biC8zAyFuYJWOUnFyClr-13" value="Actor" style="shape=umlActor;verticalLabelPosition=bottom;verticalAlign=top;html=1;outlineConnect=0;sketch=1;fillColor=#d5e8d4;strokeColor=#82b366;" vertex="1" parent="1">
          <mxGeometry x="440" y="10" width="30" height="60" as="geometry" />
        </mxCell>
        <mxCell id="biC8zAyFuYJWOUnFyClr-17" value="" style="shape=table;html=1;whiteSpace=wrap;startSize=0;container=1;collapsible=0;childLayout=tableLayout;sketch=1;fillColor=#d5e8d4;strokeColor=#82b366;" vertex="1" parent="1">
          <mxGeometry x="414" y="-210" width="180" height="120" as="geometry" />
        </mxCell>
        <mxCell id="biC8zAyFuYJWOUnFyClr-18" value="" style="shape=partialRectangle;html=1;whiteSpace=wrap;collapsible=0;dropTarget=0;pointerEvents=0;fillColor=#d5e8d4;top=0;left=0;bottom=0;right=0;points=[[0,0.5],[1,0.5]];portConstraint=eastwest;strokeColor=#82b366;" vertex="1" parent="biC8zAyFuYJWOUnFyClr-17">
          <mxGeometry width="180" height="40" as="geometry" />
        </mxCell>
        <mxCell id="biC8zAyFuYJWOUnFyClr-19" value="" style="shape=partialRectangle;html=1;whiteSpace=wrap;connectable=0;fillColor=#d5e8d4;top=0;left=0;bottom=0;right=0;overflow=hidden;strokeColor=#82b366;" vertex="1" parent="biC8zAyFuYJWOUnFyClr-18">
          <mxGeometry width="60" height="40" as="geometry" />
        </mxCell>
        <mxCell id="biC8zAyFuYJWOUnFyClr-20" value="" style="shape=partialRectangle;html=1;whiteSpace=wrap;connectable=0;fillColor=#d5e8d4;top=0;left=0;bottom=0;right=0;overflow=hidden;strokeColor=#82b366;" vertex="1" parent="biC8zAyFuYJWOUnFyClr-18">
          <mxGeometry x="60" width="60" height="40" as="geometry" />
        </mxCell>
        <mxCell id="biC8zAyFuYJWOUnFyClr-21" value="" style="shape=partialRectangle;html=1;whiteSpace=wrap;connectable=0;fillColor=#d5e8d4;top=0;left=0;bottom=0;right=0;overflow=hidden;strokeColor=#82b366;" vertex="1" parent="biC8zAyFuYJWOUnFyClr-18">
          <mxGeometry x="120" width="60" height="40" as="geometry" />
        </mxCell>
        <mxCell id="biC8zAyFuYJWOUnFyClr-22" value="" style="shape=partialRectangle;html=1;whiteSpace=wrap;collapsible=0;dropTarget=0;pointerEvents=0;fillColor=#d5e8d4;top=0;left=0;bottom=0;right=0;points=[[0,0.5],[1,0.5]];portConstraint=eastwest;strokeColor=#82b366;" vertex="1" parent="biC8zAyFuYJWOUnFyClr-17">
          <mxGeometry y="40" width="180" height="40" as="geometry" />
        </mxCell>
        <mxCell id="biC8zAyFuYJWOUnFyClr-23" value="" style="shape=partialRectangle;html=1;whiteSpace=wrap;connectable=0;fillColor=#d5e8d4;top=0;left=0;bottom=0;right=0;overflow=hidden;strokeColor=#82b366;" vertex="1" parent="biC8zAyFuYJWOUnFyClr-22">
          <mxGeometry width="60" height="40" as="geometry" />
        </mxCell>
        <mxCell id="biC8zAyFuYJWOUnFyClr-24" value="" style="shape=partialRectangle;html=1;whiteSpace=wrap;connectable=0;fillColor=#d5e8d4;top=0;left=0;bottom=0;right=0;overflow=hidden;strokeColor=#82b366;" vertex="1" parent="biC8zAyFuYJWOUnFyClr-22">
          <mxGeometry x="60" width="60" height="40" as="geometry" />
        </mxCell>
        <mxCell id="biC8zAyFuYJWOUnFyClr-25" value="" style="shape=partialRectangle;html=1;whiteSpace=wrap;connectable=0;fillColor=#d5e8d4;top=0;left=0;bottom=0;right=0;overflow=hidden;strokeColor=#82b366;" vertex="1" parent="biC8zAyFuYJWOUnFyClr-22">
          <mxGeometry x="120" width="60" height="40" as="geometry" />
        </mxCell>
        <mxCell id="biC8zAyFuYJWOUnFyClr-26" value="" style="shape=partialRectangle;html=1;whiteSpace=wrap;collapsible=0;dropTarget=0;pointerEvents=0;fillColor=#d5e8d4;top=0;left=0;bottom=0;right=0;points=[[0,0.5],[1,0.5]];portConstraint=eastwest;strokeColor=#82b366;" vertex="1" parent="biC8zAyFuYJWOUnFyClr-17">
          <mxGeometry y="80" width="180" height="40" as="geometry" />
        </mxCell>
        <mxCell id="biC8zAyFuYJWOUnFyClr-27" value="" style="shape=partialRectangle;html=1;whiteSpace=wrap;connectable=0;fillColor=#d5e8d4;top=0;left=0;bottom=0;right=0;overflow=hidden;strokeColor=#82b366;" vertex="1" parent="biC8zAyFuYJWOUnFyClr-26">
          <mxGeometry width="60" height="40" as="geometry" />
        </mxCell>
        <mxCell id="biC8zAyFuYJWOUnFyClr-28" value="" style="shape=partialRectangle;html=1;whiteSpace=wrap;connectable=0;fillColor=#d5e8d4;top=0;left=0;bottom=0;right=0;overflow=hidden;strokeColor=#82b366;" vertex="1" parent="biC8zAyFuYJWOUnFyClr-26">
          <mxGeometry x="60" width="60" height="40" as="geometry" />
        </mxCell>
        <mxCell id="biC8zAyFuYJWOUnFyClr-29" value="" style="shape=partialRectangle;html=1;whiteSpace=wrap;connectable=0;fillColor=#d5e8d4;top=0;left=0;bottom=0;right=0;overflow=hidden;strokeColor=#82b366;" vertex="1" parent="biC8zAyFuYJWOUnFyClr-26">
          <mxGeometry x="120" width="60" height="40" as="geometry" />
        </mxCell>
        <mxCell id="biC8zAyFuYJWOUnFyClr-30" value="" style="html=1;whiteSpace=wrap;shape=isoCube2;backgroundOutline=1;isoAngle=15;sketch=1;fillColor=#d5e8d4;strokeColor=#82b366;" vertex="1" parent="1">
          <mxGeometry x="259" y="650" width="90" height="100" as="geometry" />
        </mxCell>
        <mxCell id="biC8zAyFuYJWOUnFyClr-31" value="" style="ellipse;shape=doubleEllipse;whiteSpace=wrap;html=1;aspect=fixed;sketch=1;fillColor=#d5e8d4;strokeColor=#82b366;" vertex="1" parent="1">
          <mxGeometry x="560" y="690" width="80" height="80" as="geometry" />
        </mxCell>
        <mxCell id="biC8zAyFuYJWOUnFyClr-32" value="&lt;table border=&quot;1&quot; width=&quot;100%&quot; cellpadding=&quot;4&quot; style=&quot;width: 100% ; height: 100% ; border-collapse: collapse&quot;&gt;&lt;tbody&gt;&lt;tr style=&quot;background-color: #a7c942 ; color: #ffffff ; border: 1px solid #98bf21&quot;&gt;&lt;th align=&quot;left&quot;&gt;Title 1&lt;/th&gt;&lt;th align=&quot;left&quot;&gt;Title 2&lt;/th&gt;&lt;th align=&quot;left&quot;&gt;Title 3&lt;/th&gt;&lt;/tr&gt;&lt;tr style=&quot;border: 1px solid #98bf21&quot;&gt;&lt;td&gt;rewrwerwer&lt;/td&gt;&lt;td&gt;Value 2&lt;/td&gt;&lt;td&gt;Value 3&lt;/td&gt;&lt;/tr&gt;&lt;tr style=&quot;background-color: #eaf2d3 ; border: 1px solid #98bf21&quot;&gt;&lt;td&gt;Value 4&lt;/td&gt;&lt;td&gt;Value 5&lt;/td&gt;&lt;td&gt;Value 6&lt;/td&gt;&lt;/tr&gt;&lt;tr style=&quot;border: 1px solid #98bf21&quot;&gt;&lt;td&gt;Value 7&lt;/td&gt;&lt;td&gt;Value 8&lt;/td&gt;&lt;td&gt;Value 9&lt;/td&gt;&lt;/tr&gt;&lt;tr style=&quot;background-color: #eaf2d3 ; border: 1px solid #98bf21&quot;&gt;&lt;td&gt;Value 10&lt;/td&gt;&lt;td&gt;Value 11&lt;/td&gt;&lt;td&gt;Value 12&lt;/td&gt;&lt;/tr&gt;&lt;/tbody&gt;&lt;/table&gt;" style="text;html=1;strokeColor=#82b366;fillColor=#d5e8d4;overflow=fill;rounded=0;sketch=1;" vertex="1" parent="1">
          <mxGeometry x="414" y="830" width="280" height="160" as="geometry" />
        </mxCell>
        <mxCell id="biC8zAyFuYJWOUnFyClr-33" value="" style="rounded=1;whiteSpace=wrap;html=1;strokeWidth=2;fillWeight=4;hachureGap=8;hachureAngle=45;fillColor=#d5e8d4;sketch=1;strokeColor=#82b366;" vertex="1" parent="1">
          <mxGeometry x="180" y="980" width="120" height="60" as="geometry" />
        </mxCell>
        <mxCell id="biC8zAyFuYJWOUnFyClr-34" value="" style="shape=offPageConnector;whiteSpace=wrap;html=1;sketch=1;fillColor=#d5e8d4;strokeColor=#82b366;" vertex="1" parent="1">
          <mxGeometry x="405" y="1060" width="80" height="80" as="geometry" />
        </mxCell>
        <mxCell id="biC8zAyFuYJWOUnFyClr-56" value="" style="shape=orEllipse;perimeter=ellipsePerimeter;whiteSpace=wrap;html=1;backgroundOutline=1;sketch=1;fillColor=#d5e8d4;strokeColor=#82b366;" vertex="1" parent="1">
          <mxGeometry x="490" y="-560" width="80" height="80" as="geometry" />
        </mxCell>
        <mxCell id="biC8zAyFuYJWOUnFyClr-57" value="Tree Container" style="swimlane;html=1;startSize=20;horizontal=1;containerType=tree;sketch=1;rotation=30;fillColor=#d5e8d4;strokeColor=#82b366;" vertex="1" parent="1">
          <mxGeometry x="60" y="-790" width="400" height="320" as="geometry" />
        </mxCell>
        <mxCell id="biC8zAyFuYJWOUnFyClr-58" value="" style="edgeStyle=elbowEdgeStyle;elbow=vertical;startArrow=none;endArrow=none;rounded=0;fillColor=#d5e8d4;strokeColor=#82b366;" edge="1" parent="biC8zAyFuYJWOUnFyClr-57" source="biC8zAyFuYJWOUnFyClr-59" target="biC8zAyFuYJWOUnFyClr-60">
          <mxGeometry relative="1" as="geometry" />
        </mxCell>
        <mxCell id="biC8zAyFuYJWOUnFyClr-59" value="Parent" style="whiteSpace=wrap;html=1;treeFolding=1;treeMoving=1;newEdgeStyle={&quot;edgeStyle&quot;:&quot;elbowEdgeStyle&quot;,&quot;startArrow&quot;:&quot;none&quot;,&quot;endArrow&quot;:&quot;none&quot;};rotation=30;fillColor=#d5e8d4;strokeColor=#82b366;" vertex="1" parent="biC8zAyFuYJWOUnFyClr-57">
          <mxGeometry x="180" y="71" width="120" height="40" as="geometry" />
        </mxCell>
        <mxCell id="biC8zAyFuYJWOUnFyClr-60" value="Child" style="whiteSpace=wrap;html=1;treeFolding=1;treeMoving=1;newEdgeStyle={&quot;edgeStyle&quot;:&quot;elbowEdgeStyle&quot;,&quot;startArrow&quot;:&quot;none&quot;,&quot;endArrow&quot;:&quot;none&quot;};rotation=30;fillColor=#d5e8d4;strokeColor=#82b366;" vertex="1" parent="biC8zAyFuYJWOUnFyClr-57">
          <mxGeometry x="140" y="140" width="120" height="40" as="geometry" />
        </mxCell>
        <mxCell id="biC8zAyFuYJWOUnFyClr-61" value="" style="verticalLabelPosition=bottom;verticalAlign=top;html=1;shape=mxgraph.basic.rect;fillColor2=none;strokeWidth=1;size=20;indent=5;sketch=1;fillColor=#d5e8d4;strokeColor=#82b366;" vertex="1" parent="1">
          <mxGeometry x="350" y="-480" width="120" height="60" as="geometry" />
        </mxCell>
        <mxCell id="biC8zAyFuYJWOUnFyClr-62" value="" style="shape=partialRectangle;whiteSpace=wrap;html=1;top=0;bottom=0;fillColor=#d5e8d4;sketch=1;strokeColor=#82b366;" vertex="1" parent="1">
          <mxGeometry x="670" y="-719" width="120" height="60" as="geometry" />
        </mxCell>
        <mxCell id="biC8zAyFuYJWOUnFyClr-63" value="" style="shape=partialRectangle;whiteSpace=wrap;html=1;top=0;bottom=0;fillColor=#d5e8d4;sketch=1;strokeColor=#82b366;" vertex="1" parent="1">
          <mxGeometry x="680" y="-560" width="40" height="60" as="geometry" />
        </mxCell>
        <mxCell id="biC8zAyFuYJWOUnFyClr-64" value="" style="verticalLabelPosition=bottom;verticalAlign=top;html=1;shape=mxgraph.basic.polygon;polyCoords=[[0.25,0],[0.75,0],[1,0.25],[1,0.75],[0.75,1],[0.25,1],[0,0.75],[0,0.25]];polyline=1;fillColor=#d5e8d4;sketch=1;strokeColor=#82b366;" vertex="1" parent="1">
          <mxGeometry x="360" y="-500" width="100" height="100" as="geometry" />
        </mxCell>
        <mxCell id="biC8zAyFuYJWOUnFyClr-65" value="" style="verticalLabelPosition=bottom;verticalAlign=top;html=1;shape=mxgraph.basic.smiley;sketch=1;fillColor=#d5e8d4;strokeColor=#82b366;" vertex="1" parent="1">
          <mxGeometry x="620" y="-420" width="100" height="100" as="geometry" />
        </mxCell>
        <mxCell id="biC8zAyFuYJWOUnFyClr-66" value="" style="verticalLabelPosition=bottom;verticalAlign=top;html=1;shape=mxgraph.flowchart.on-page_reference;sketch=1;fillColor=#d5e8d4;strokeColor=#82b366;" vertex="1" parent="1">
          <mxGeometry x="150" y="-350" width="60" height="60" as="geometry" />
        </mxCell>
        <mxCell id="biC8zAyFuYJWOUnFyClr-67" value="" style="strokeWidth=2;html=1;shape=mxgraph.flowchart.start_2;whiteSpace=wrap;sketch=1;fillColor=#d5e8d4;strokeColor=#82b366;" vertex="1" parent="1">
          <mxGeometry x="320" y="-350" width="100" height="100" as="geometry" />
        </mxCell>
      </root>
    </mxGraphModel>
  </diagram>
</mxfile>
